<mxfile host="app.diagrams.net" modified="2021-11-29T21:16:13.131Z" agent="5.0 (Windows)" etag="IW4QWqfyIfL0yIgilNBj" version="15.8.3" type="github">
  <diagram id="c4kQ62IUwrZo4tqciYfw" name="Page-1">
    <mxGraphModel dx="2012" dy="659" grid="1" gridSize="10" guides="1" tooltips="1" connect="1" arrows="0" fold="1" page="1" pageScale="1" pageWidth="827" pageHeight="1169" math="0" shadow="0">
      <root>
        <mxCell id="0" />
        <mxCell id="1" parent="0" />
        <mxCell id="O-nu7JSQrFN56u6NZ3is-10" style="edgeStyle=orthogonalEdgeStyle;rounded=0;orthogonalLoop=1;jettySize=auto;html=1;exitX=0.5;exitY=1;exitDx=0;exitDy=0;entryX=0.5;entryY=0;entryDx=0;entryDy=0;" edge="1" parent="1" source="O-nu7JSQrFN56u6NZ3is-2" target="O-nu7JSQrFN56u6NZ3is-7">
          <mxGeometry relative="1" as="geometry" />
        </mxCell>
        <mxCell id="O-nu7JSQrFN56u6NZ3is-2" value="&amp;nbsp;&amp;nbsp;&amp;nbsp;&amp;nbsp; int[ ] digits = " style="rounded=1;whiteSpace=wrap;html=1;absoluteArcSize=1;arcSize=14;strokeWidth=2;align=left;" vertex="1" parent="1">
          <mxGeometry x="30" y="110" width="220" height="60" as="geometry" />
        </mxCell>
        <mxCell id="O-nu7JSQrFN56u6NZ3is-3" value="" style="verticalLabelPosition=bottom;verticalAlign=top;html=1;shape=process;whiteSpace=wrap;rounded=1;size=0.043478260869565216;arcSize=6;" vertex="1" parent="1">
          <mxGeometry x="125" y="129" width="115" height="20" as="geometry" />
        </mxCell>
        <mxCell id="O-nu7JSQrFN56u6NZ3is-4" value="convertirArray(n)" style="text;html=1;align=center;verticalAlign=middle;resizable=0;points=[];autosize=1;strokeColor=none;fillColor=none;" vertex="1" parent="1">
          <mxGeometry x="132.5" y="129" width="100" height="20" as="geometry" />
        </mxCell>
        <mxCell id="O-nu7JSQrFN56u6NZ3is-6" style="edgeStyle=orthogonalEdgeStyle;rounded=0;orthogonalLoop=1;jettySize=auto;html=1;exitX=0.5;exitY=1;exitDx=0;exitDy=0;exitPerimeter=0;entryX=0.5;entryY=0;entryDx=0;entryDy=0;" edge="1" parent="1" source="O-nu7JSQrFN56u6NZ3is-5" target="O-nu7JSQrFN56u6NZ3is-2">
          <mxGeometry relative="1" as="geometry" />
        </mxCell>
        <mxCell id="O-nu7JSQrFN56u6NZ3is-5" value="Start" style="strokeWidth=2;html=1;shape=mxgraph.flowchart.start_1;whiteSpace=wrap;fillColor=default;align=center;" vertex="1" parent="1">
          <mxGeometry x="90" y="20" width="100" height="60" as="geometry" />
        </mxCell>
        <mxCell id="O-nu7JSQrFN56u6NZ3is-26" style="edgeStyle=orthogonalEdgeStyle;rounded=0;orthogonalLoop=1;jettySize=auto;html=1;exitX=0.5;exitY=1;exitDx=0;exitDy=0;entryX=0.5;entryY=0;entryDx=0;entryDy=0;" edge="1" parent="1" source="O-nu7JSQrFN56u6NZ3is-7" target="O-nu7JSQrFN56u6NZ3is-25">
          <mxGeometry relative="1" as="geometry" />
        </mxCell>
        <mxCell id="O-nu7JSQrFN56u6NZ3is-7" value="&amp;nbsp;int longitudNumero = " style="rounded=1;whiteSpace=wrap;html=1;absoluteArcSize=1;arcSize=14;strokeWidth=2;align=left;" vertex="1" parent="1">
          <mxGeometry x="10" y="200" width="260" height="60" as="geometry" />
        </mxCell>
        <mxCell id="O-nu7JSQrFN56u6NZ3is-8" value="" style="verticalLabelPosition=bottom;verticalAlign=top;html=1;shape=process;whiteSpace=wrap;rounded=1;size=0.07692307692307693;arcSize=6;" vertex="1" parent="1">
          <mxGeometry x="140" y="220" width="122.5" height="20" as="geometry" />
        </mxCell>
        <mxCell id="O-nu7JSQrFN56u6NZ3is-9" value="convertirArray(n)" style="text;html=1;align=center;verticalAlign=middle;resizable=0;points=[];autosize=1;strokeColor=none;fillColor=none;" vertex="1" parent="1">
          <mxGeometry x="151.25" y="220" width="100" height="20" as="geometry" />
        </mxCell>
        <mxCell id="O-nu7JSQrFN56u6NZ3is-11" value="" style="strokeWidth=2;html=1;shape=mxgraph.flowchart.start_1;whiteSpace=wrap;fillColor=default;align=center;" vertex="1" parent="1">
          <mxGeometry x="-190" y="50" width="40" height="30" as="geometry" />
        </mxCell>
        <mxCell id="O-nu7JSQrFN56u6NZ3is-12" value="" style="strokeWidth=2;html=1;shape=mxgraph.flowchart.terminator;whiteSpace=wrap;fillColor=default;align=center;" vertex="1" parent="1">
          <mxGeometry x="-190" y="90" width="40" height="30" as="geometry" />
        </mxCell>
        <mxCell id="O-nu7JSQrFN56u6NZ3is-13" value="" style="rounded=1;whiteSpace=wrap;html=1;absoluteArcSize=1;arcSize=14;strokeWidth=2;fillColor=default;align=center;" vertex="1" parent="1">
          <mxGeometry x="-190" y="130" width="40" height="30" as="geometry" />
        </mxCell>
        <mxCell id="O-nu7JSQrFN56u6NZ3is-14" value="" style="verticalLabelPosition=bottom;verticalAlign=top;html=1;shape=process;whiteSpace=wrap;rounded=1;size=0.14;arcSize=6;fillColor=default;" vertex="1" parent="1">
          <mxGeometry x="-190" y="170" width="40" height="30" as="geometry" />
        </mxCell>
        <mxCell id="O-nu7JSQrFN56u6NZ3is-15" value="&lt;div align=&quot;left&quot;&gt;Start&lt;/div&gt;" style="text;html=1;align=left;verticalAlign=middle;resizable=0;points=[];autosize=1;strokeColor=none;fillColor=none;" vertex="1" parent="1">
          <mxGeometry x="-140" y="55" width="40" height="20" as="geometry" />
        </mxCell>
        <mxCell id="O-nu7JSQrFN56u6NZ3is-16" value="&lt;div align=&quot;left&quot;&gt;End&lt;/div&gt;" style="text;html=1;align=left;verticalAlign=middle;resizable=0;points=[];autosize=1;strokeColor=none;fillColor=none;" vertex="1" parent="1">
          <mxGeometry x="-140" y="95" width="40" height="20" as="geometry" />
        </mxCell>
        <mxCell id="O-nu7JSQrFN56u6NZ3is-17" value="&lt;div align=&quot;left&quot;&gt;Proceso&lt;/div&gt;" style="text;html=1;align=left;verticalAlign=middle;resizable=0;points=[];autosize=1;strokeColor=none;fillColor=none;" vertex="1" parent="1">
          <mxGeometry x="-140" y="135" width="60" height="20" as="geometry" />
        </mxCell>
        <mxCell id="O-nu7JSQrFN56u6NZ3is-18" value="&lt;div align=&quot;left&quot;&gt;Operación&lt;/div&gt;" style="text;html=1;align=left;verticalAlign=middle;resizable=0;points=[];autosize=1;strokeColor=none;fillColor=none;" vertex="1" parent="1">
          <mxGeometry x="-140" y="175" width="70" height="20" as="geometry" />
        </mxCell>
        <mxCell id="O-nu7JSQrFN56u6NZ3is-22" value="" style="strokeWidth=2;html=1;shape=mxgraph.flowchart.decision;whiteSpace=wrap;fillColor=default;align=left;" vertex="1" parent="1">
          <mxGeometry x="-190" y="210" width="40" height="30" as="geometry" />
        </mxCell>
        <mxCell id="O-nu7JSQrFN56u6NZ3is-24" value="Condición" style="text;html=1;align=left;verticalAlign=middle;resizable=0;points=[];autosize=1;strokeColor=none;fillColor=none;" vertex="1" parent="1">
          <mxGeometry x="-140" y="215" width="70" height="20" as="geometry" />
        </mxCell>
        <mxCell id="O-nu7JSQrFN56u6NZ3is-28" style="edgeStyle=orthogonalEdgeStyle;rounded=0;orthogonalLoop=1;jettySize=auto;html=1;exitX=0.5;exitY=1;exitDx=0;exitDy=0;" edge="1" parent="1" source="O-nu7JSQrFN56u6NZ3is-25" target="O-nu7JSQrFN56u6NZ3is-27">
          <mxGeometry relative="1" as="geometry" />
        </mxCell>
        <mxCell id="O-nu7JSQrFN56u6NZ3is-25" value="&lt;div align=&quot;center&quot;&gt;String resultado = &quot;&quot;&lt;/div&gt;" style="rounded=1;whiteSpace=wrap;html=1;absoluteArcSize=1;arcSize=14;strokeWidth=2;fillColor=default;align=center;" vertex="1" parent="1">
          <mxGeometry x="60" y="290" width="160" height="60" as="geometry" />
        </mxCell>
        <mxCell id="O-nu7JSQrFN56u6NZ3is-30" style="edgeStyle=orthogonalEdgeStyle;rounded=0;orthogonalLoop=1;jettySize=auto;html=1;exitX=1;exitY=0.5;exitDx=0;exitDy=0;exitPerimeter=0;entryX=0.5;entryY=0;entryDx=0;entryDy=0;" edge="1" parent="1" source="O-nu7JSQrFN56u6NZ3is-27" target="O-nu7JSQrFN56u6NZ3is-34">
          <mxGeometry relative="1" as="geometry">
            <mxPoint x="250" y="450" as="targetPoint" />
          </mxGeometry>
        </mxCell>
        <mxCell id="O-nu7JSQrFN56u6NZ3is-33" style="edgeStyle=orthogonalEdgeStyle;rounded=0;orthogonalLoop=1;jettySize=auto;html=1;exitX=0;exitY=0.5;exitDx=0;exitDy=0;exitPerimeter=0;entryX=0.5;entryY=0;entryDx=0;entryDy=0;" edge="1" parent="1" source="O-nu7JSQrFN56u6NZ3is-27" target="O-nu7JSQrFN56u6NZ3is-36">
          <mxGeometry relative="1" as="geometry">
            <mxPoint x="20" y="450" as="targetPoint" />
          </mxGeometry>
        </mxCell>
        <mxCell id="O-nu7JSQrFN56u6NZ3is-27" value="n == 0" style="strokeWidth=2;html=1;shape=mxgraph.flowchart.decision;whiteSpace=wrap;fillColor=default;align=center;" vertex="1" parent="1">
          <mxGeometry x="90" y="380" width="100" height="60" as="geometry" />
        </mxCell>
        <mxCell id="O-nu7JSQrFN56u6NZ3is-31" value="Si" style="text;html=1;align=center;verticalAlign=middle;resizable=0;points=[];autosize=1;strokeColor=none;fillColor=none;" vertex="1" parent="1">
          <mxGeometry x="190" y="390" width="30" height="20" as="geometry" />
        </mxCell>
        <mxCell id="O-nu7JSQrFN56u6NZ3is-32" value="No" style="text;html=1;align=center;verticalAlign=middle;resizable=0;points=[];autosize=1;strokeColor=none;fillColor=none;" vertex="1" parent="1">
          <mxGeometry x="60" y="390" width="30" height="20" as="geometry" />
        </mxCell>
        <mxCell id="O-nu7JSQrFN56u6NZ3is-40" style="edgeStyle=orthogonalEdgeStyle;rounded=0;orthogonalLoop=1;jettySize=auto;html=1;exitX=0.5;exitY=1;exitDx=0;exitDy=0;endArrow=none;endFill=0;" edge="1" parent="1">
          <mxGeometry relative="1" as="geometry">
            <mxPoint x="140" y="570" as="targetPoint" />
            <mxPoint x="370" y="480" as="sourcePoint" />
            <Array as="points">
              <mxPoint x="370" y="550" />
              <mxPoint x="140" y="550" />
            </Array>
          </mxGeometry>
        </mxCell>
        <mxCell id="O-nu7JSQrFN56u6NZ3is-34" value="&lt;div align=&quot;center&quot;&gt;String resultado = &quot;zero&quot;&lt;br&gt;&lt;/div&gt;" style="rounded=1;whiteSpace=wrap;html=1;absoluteArcSize=1;arcSize=14;strokeWidth=2;fillColor=default;align=center;" vertex="1" parent="1">
          <mxGeometry x="290" y="450" width="160" height="60" as="geometry" />
        </mxCell>
        <mxCell id="O-nu7JSQrFN56u6NZ3is-39" style="edgeStyle=orthogonalEdgeStyle;rounded=0;orthogonalLoop=1;jettySize=auto;html=1;exitX=0.5;exitY=1;exitDx=0;exitDy=0;entryX=0.5;entryY=0;entryDx=0;entryDy=0;entryPerimeter=0;" edge="1" parent="1" target="O-nu7JSQrFN56u6NZ3is-41">
          <mxGeometry relative="1" as="geometry">
            <mxPoint x="140" y="610" as="targetPoint" />
            <mxPoint x="-90" y="480" as="sourcePoint" />
            <Array as="points">
              <mxPoint x="-90" y="550" />
              <mxPoint x="140" y="550" />
            </Array>
          </mxGeometry>
        </mxCell>
        <mxCell id="O-nu7JSQrFN56u6NZ3is-36" value="&amp;nbsp; String resultado&amp;nbsp; =&amp;nbsp; " style="rounded=1;whiteSpace=wrap;html=1;absoluteArcSize=1;arcSize=14;strokeWidth=2;fillColor=default;align=left;" vertex="1" parent="1">
          <mxGeometry x="-270" y="450" width="360" height="60" as="geometry" />
        </mxCell>
        <mxCell id="O-nu7JSQrFN56u6NZ3is-37" value="" style="verticalLabelPosition=bottom;verticalAlign=top;html=1;shape=process;whiteSpace=wrap;rounded=1;size=0.043478260869565216;arcSize=6;" vertex="1" parent="1">
          <mxGeometry x="-150" y="470" width="230" height="20" as="geometry" />
        </mxCell>
        <mxCell id="O-nu7JSQrFN56u6NZ3is-38" value="añadirSufijos(longitudNumero, digits)" style="text;html=1;align=center;verticalAlign=middle;resizable=0;points=[];autosize=1;strokeColor=none;fillColor=none;" vertex="1" parent="1">
          <mxGeometry x="-145" y="470" width="220" height="20" as="geometry" />
        </mxCell>
        <mxCell id="O-nu7JSQrFN56u6NZ3is-42" style="edgeStyle=orthogonalEdgeStyle;rounded=0;orthogonalLoop=1;jettySize=auto;html=1;exitX=0.5;exitY=1;exitDx=0;exitDy=0;exitPerimeter=0;endArrow=classic;endFill=1;" edge="1" parent="1" source="O-nu7JSQrFN56u6NZ3is-41" target="O-nu7JSQrFN56u6NZ3is-47">
          <mxGeometry relative="1" as="geometry">
            <mxPoint x="140" y="840" as="targetPoint" />
          </mxGeometry>
        </mxCell>
        <mxCell id="O-nu7JSQrFN56u6NZ3is-43" style="edgeStyle=orthogonalEdgeStyle;rounded=0;orthogonalLoop=1;jettySize=auto;html=1;exitX=1;exitY=0.5;exitDx=0;exitDy=0;exitPerimeter=0;endArrow=classic;endFill=1;entryX=0.5;entryY=0;entryDx=0;entryDy=0;" edge="1" parent="1" source="O-nu7JSQrFN56u6NZ3is-41" target="O-nu7JSQrFN56u6NZ3is-44">
          <mxGeometry relative="1" as="geometry">
            <mxPoint x="320" y="760" as="targetPoint" />
          </mxGeometry>
        </mxCell>
        <mxCell id="O-nu7JSQrFN56u6NZ3is-41" value="&lt;div align=&quot;center&quot;&gt;resultado.ultimoCaracter == &quot; &quot;&lt;br&gt;&lt;/div&gt;" style="strokeWidth=2;html=1;shape=mxgraph.flowchart.decision;whiteSpace=wrap;fillColor=default;align=center;" vertex="1" parent="1">
          <mxGeometry x="40" y="580" width="200" height="60" as="geometry" />
        </mxCell>
        <mxCell id="O-nu7JSQrFN56u6NZ3is-48" style="edgeStyle=orthogonalEdgeStyle;rounded=0;orthogonalLoop=1;jettySize=auto;html=1;exitX=0.5;exitY=1;exitDx=0;exitDy=0;endArrow=none;endFill=0;" edge="1" parent="1" source="O-nu7JSQrFN56u6NZ3is-44">
          <mxGeometry relative="1" as="geometry">
            <mxPoint x="140" y="760" as="targetPoint" />
          </mxGeometry>
        </mxCell>
        <mxCell id="O-nu7JSQrFN56u6NZ3is-44" value="resultado = resultado.quitarUltimoCaracter" style="rounded=1;whiteSpace=wrap;html=1;absoluteArcSize=1;arcSize=14;strokeWidth=2;fillColor=default;align=center;" vertex="1" parent="1">
          <mxGeometry x="240" y="650" width="260" height="70" as="geometry" />
        </mxCell>
        <mxCell id="O-nu7JSQrFN56u6NZ3is-45" value="" style="shape=parallelogram;html=1;strokeWidth=2;perimeter=parallelogramPerimeter;whiteSpace=wrap;rounded=1;arcSize=12;size=0.23;fillColor=default;align=center;" vertex="1" parent="1">
          <mxGeometry x="-190" y="250" width="40" height="30" as="geometry" />
        </mxCell>
        <mxCell id="O-nu7JSQrFN56u6NZ3is-46" value="Return" style="text;html=1;align=left;verticalAlign=middle;resizable=0;points=[];autosize=1;strokeColor=none;fillColor=none;" vertex="1" parent="1">
          <mxGeometry x="-140" y="255" width="50" height="20" as="geometry" />
        </mxCell>
        <mxCell id="O-nu7JSQrFN56u6NZ3is-50" style="edgeStyle=orthogonalEdgeStyle;rounded=0;orthogonalLoop=1;jettySize=auto;html=1;exitX=0.5;exitY=1;exitDx=0;exitDy=0;entryX=0.5;entryY=0;entryDx=0;entryDy=0;entryPerimeter=0;endArrow=classic;endFill=1;" edge="1" parent="1" source="O-nu7JSQrFN56u6NZ3is-47" target="O-nu7JSQrFN56u6NZ3is-49">
          <mxGeometry relative="1" as="geometry" />
        </mxCell>
        <mxCell id="O-nu7JSQrFN56u6NZ3is-47" value="resultado.primeraMayuscula" style="shape=parallelogram;html=1;strokeWidth=2;perimeter=parallelogramPerimeter;whiteSpace=wrap;rounded=1;arcSize=12;size=0.23;fillColor=default;align=center;" vertex="1" parent="1">
          <mxGeometry x="30" y="780" width="220" height="60" as="geometry" />
        </mxCell>
        <mxCell id="O-nu7JSQrFN56u6NZ3is-49" value="End" style="strokeWidth=2;html=1;shape=mxgraph.flowchart.terminator;whiteSpace=wrap;fillColor=default;align=center;" vertex="1" parent="1">
          <mxGeometry x="90" y="870" width="100" height="60" as="geometry" />
        </mxCell>
      </root>
    </mxGraphModel>
  </diagram>
</mxfile>
